<svg width="228" height="78" viewBox="0 0 228 78" fill="none" xmlns="http://www.w3.org/2000/svg">
<g clip-path="url(#clip0)">
<path d="M99.5256 67.4902H72.9716V76.2613H99.5256V67.4902Z" fill="#004B6B"/>
<path d="M86.5043 28.2557L89.6256 49.7047H83.7745L86.5043 28.2557ZM91.2409 1.36523H82.3849L73.4371 62.8297H82.1027L82.6388 58.6307H90.927L91.5372 62.8297H99.0636L91.2409 1.36523Z" fill="#F47B6B"/>
<path d="M139.404 1.6084H130.485V45.946L117.446 1.6084H108.526V76.2612H117.446V31.9235L130.485 76.2612H139.404V1.6084Z" fill="#F47B6B"/>
<path d="M167.895 1.36523L157.303 33.0425V1.60809H148.405V76.2609H157.303V45.6078L167.584 76.3664H176.176L163.796 39.3252L176.483 1.36523H167.895Z" fill="#F47B6B"/>
<path d="M188.336 30.6535H181.59L183.501 23.8851V12.0801H192.297V23.8851L188.336 30.6535Z" fill="#004B6B"/>
<path d="M17.7932 64.6182C17.8099 65.2109 17.7074 65.8009 17.4917 66.3533C17.276 66.9057 16.9515 67.4094 16.5373 67.8345C16.1232 68.2596 15.6278 68.5976 15.0806 68.8283C14.5333 69.0591 13.9452 69.1779 13.3511 69.1779C12.757 69.1779 12.1689 69.0591 11.6216 68.8283C11.0743 68.5976 10.579 68.2596 10.1648 67.8345C9.75067 67.4094 9.42615 66.9057 9.21044 66.3533C8.99473 65.8009 8.89221 65.2109 8.90894 64.6182V13.382C8.89221 12.7893 8.99473 12.1993 9.21044 11.6469C9.42615 11.0944 9.75067 10.5908 10.1648 10.1656C10.579 9.74054 11.0743 9.40262 11.6216 9.17187C12.1689 8.94113 12.757 8.82223 13.3511 8.82223C13.9452 8.82223 14.5333 8.94113 15.0806 9.17187C15.6278 9.40262 16.1232 9.74054 16.5373 10.1656C16.9515 10.5908 17.276 11.0944 17.4917 11.6469C17.7074 12.1993 17.8099 12.7893 17.7932 13.382V20.0201H26.7022V13.382C26.7309 11.6141 26.4069 9.85808 25.7489 8.21638C25.0908 6.57468 24.112 5.08009 22.8694 3.8197C21.6268 2.5593 20.1452 1.5583 18.5111 0.875017C16.8769 0.191738 15.1229 -0.160156 13.3511 -0.160156C11.5793 -0.160156 9.82523 0.191738 8.19108 0.875017C6.55694 1.5583 5.07539 2.5593 3.83277 3.8197C2.59016 5.08009 1.61132 6.57468 0.953289 8.21638C0.29526 9.85808 -0.0288007 11.6141 -6.4465e-06 13.382V64.6182C-0.0288007 66.3861 0.29526 68.1421 0.953289 69.7838C1.61132 71.4255 2.59016 72.9201 3.83277 74.1805C5.07539 75.4409 6.55694 76.4419 8.19108 77.1252C9.82523 77.8084 11.5793 78.1603 13.3511 78.1603C15.1229 78.1603 16.8769 77.8084 18.5111 77.1252C20.1452 76.4419 21.6268 75.4409 22.8694 74.1805C24.112 72.9201 25.0908 71.4255 25.7489 69.7838C26.4069 68.1421 26.7309 66.3861 26.7022 64.6182V57.9801H17.7932V64.6182Z" fill="#F47B6B"/>
<path d="M49.0416 1.50293H35.7028V76.5006H44.6082V43.4648H48.5901L54.8856 76.5006H63.9533L57.0123 40.8215C58.686 39.5739 60.0443 37.9532 60.9787 36.0887C61.9132 34.2242 62.398 32.1676 62.3944 30.0829V14.8813C62.3981 13.1286 62.0558 11.3923 61.3872 9.77159C60.7185 8.15088 59.7365 6.67747 58.4972 5.4355C57.2579 4.19353 55.7857 3.20732 54.1645 2.53317C52.5433 1.85902 50.8049 1.51014 49.0486 1.50645L49.0416 1.50293ZM49.0486 34.5388H44.6082V10.4324H49.0416C50.2214 10.4352 51.3519 10.9054 52.1845 11.7396C53.0171 12.5738 53.4838 13.7038 53.4819 14.8813V30.0829C53.4833 30.6662 53.3696 31.244 53.1472 31.7835C52.9248 32.3229 52.5981 32.8134 52.1858 33.2268C51.7734 33.6403 51.2835 33.9686 50.7441 34.1931C50.2046 34.4176 49.6261 34.5339 49.0416 34.5353" fill="#F47B6B"/>
<path d="M214.651 1.49902H201.298V76.5002H214.651C218.198 76.4918 221.596 75.0783 224.099 72.5704C226.603 70.0624 228.006 66.6652 228 63.1254V14.9055C228.006 11.3657 226.603 7.96854 224.099 5.46057C221.596 2.9526 218.198 1.53909 214.651 1.5307V1.49902ZM219.091 63.15C219.093 64.3275 218.626 65.4575 217.794 66.2917C216.961 67.1259 215.831 67.5961 214.651 67.5989H210.221V10.432H214.661C215.841 10.4348 216.972 10.905 217.804 11.7392C218.637 12.5735 219.103 13.7035 219.102 14.8809L219.091 63.15Z" fill="#F47B6B"/>
</g>
<defs>
<clipPath id="clip0">
<rect width="228" height="78" fill="white"/>
</clipPath>
</defs>
</svg>
